<?xml version="1.0" encoding="UTF-8"?>
<svg width="64" height="64" viewBox="0 0 64 64" xmlns="http://www.w3.org/2000/svg">
  <!-- NextCloud gradient background -->
  <defs>
    <linearGradient id="ncGradient" x1="0%" y1="0%" x2="100%" y2="100%">
      <stop offset="0%" stop-color="#0082c9"/>
      <stop offset="100%" stop-color="#0066a6"/>
    </linearGradient>
  </defs>
  
  <!-- Background circle -->
  <circle cx="32" cy="32" r="32" fill="url(#ncGradient)"/>
  
  <!-- NextCloud-style cloud shape with calendar -->
  <g fill="white">
    <!-- Cloud base (NextCloud style) -->
    <path d="M20 26c-4 0-7 3-7 6.5s3 6.5 7 6.5h24c3.5 0 6.5-2.5 6.5-6s-3-6.5-6.5-6.5c0-5-4-9-9-9-3 0-5.5 1.5-7 4-1-0.5-2-1-3.5-1z" opacity="0.3"/>
    
    <!-- Calendar overlay -->
    <rect x="24" y="20" width="16" height="18" rx="2" ry="2" fill="white" stroke="#0082c9" stroke-width="1"/>
    
    <!-- Calendar header -->
    <rect x="24" y="20" width="16" height="4" rx="2" ry="2" fill="#0082c9"/>
    
    <!-- Calendar rings -->
    <rect x="27" y="18" width="1" height="6" rx="0.5" fill="white"/>
    <rect x="36" y="18" width="1" height="6" rx="0.5" fill="white"/>
    
    <!-- Calendar grid lines -->
    <line x1="26" y1="28" x2="38" y2="28" stroke="#e0e0e0" stroke-width="0.5"/>
    <line x1="26" y1="31" x2="38" y2="31" stroke="#e0e0e0" stroke-width="0.5"/>
    <line x1="26" y1="34" x2="38" y2="34" stroke="#e0e0e0" stroke-width="0.5"/>
    
    <!-- Date numbers -->
    <circle cx="28" cy="26.5" r="0.8" fill="#0082c9"/>
    <circle cx="31" cy="26.5" r="0.8" fill="#0082c9"/>
    <circle cx="34" cy="26.5" r="0.8" fill="#0082c9"/>
    <circle cx="37" cy="26.5" r="0.8" fill="#0082c9"/>
    
    <circle cx="28" cy="29.5" r="0.8" fill="#0082c9"/>
    <circle cx="31" cy="29.5" r="0.8" fill="#ff6b35"/>  <!-- Highlighted date -->
    <circle cx="34" cy="29.5" r="0.8" fill="#0082c9"/>
    <circle cx="37" cy="29.5" r="0.8" fill="#0082c9"/>
    
    <circle cx="28" cy="32.5" r="0.8" fill="#0082c9"/>
    <circle cx="31" cy="32.5" r="0.8" fill="#0082c9"/>
    <circle cx="34" cy="32.5" r="0.8" fill="#0082c9"/>
    
    <!-- Small cloud accent -->
    <ellipse cx="45" cy="45" rx="6" ry="3" fill="white" opacity="0.6"/>
    <ellipse cx="19" cy="19" rx="4" ry="2" fill="white" opacity="0.4"/>
  </g>
</svg>
